<svg xmlns="http://www.w3.org/2000/svg" width="23" height="16" viewBox="0 0 23 16">
  <defs>
    <style>
      .cls-1 {
        fill: #fff;
        fill-rule: evenodd;
      }
    </style>
  </defs>
  <path class="cls-1" d="M21.729,9.231H1.271A1.154,1.154,0,0,1,.213,8,1.154,1.154,0,0,1,1.271,6.769H21.729A1.154,1.154,0,0,1,22.787,8,1.154,1.154,0,0,1,21.729,9.231Zm0-6.564H1.271A1.154,1.154,0,0,1,.213,1.436,1.155,1.155,0,0,1,1.271.205H21.729a1.155,1.155,0,0,1,1.058,1.231A1.154,1.154,0,0,1,21.729,2.667ZM1.271,13.333H21.729a1.154,1.154,0,0,1,1.058,1.231A1.154,1.154,0,0,1,21.729,15.8H1.271A1.154,1.154,0,0,1,.213,14.564,1.154,1.154,0,0,1,1.271,13.333ZM21.729,16H1.271A1.363,1.363,0,0,1,0,14.564a1.363,1.363,0,0,1,1.271-1.436H21.729A1.363,1.363,0,0,1,23,14.564,1.362,1.362,0,0,1,21.729,16ZM1.271,13.539a0.95,0.95,0,0,0-.845,1.025,0.95,0.95,0,0,0,.845,1.026H21.729a0.95,0.95,0,0,0,.845-1.026,0.95,0.95,0,0,0-.845-1.025H1.271Zm20.458-4.1H1.271A1.363,1.363,0,0,1,0,8,1.363,1.363,0,0,1,1.271,6.564H21.729A1.363,1.363,0,0,1,23,8,1.363,1.363,0,0,1,21.729,9.436ZM1.271,6.974A0.95,0.95,0,0,0,.426,8a0.95,0.95,0,0,0,.845,1.026H21.729A0.95,0.95,0,0,0,22.574,8a0.95,0.95,0,0,0-.845-1.026H1.271Zm20.458-4.1H1.271A1.362,1.362,0,0,1,0,1.436,1.363,1.363,0,0,1,1.271,0H21.729A1.363,1.363,0,0,1,23,1.436,1.362,1.362,0,0,1,21.729,2.872ZM1.271,0.41A0.95,0.95,0,0,0,.426,1.436a0.95,0.95,0,0,0,.845,1.025H21.729a0.95,0.95,0,0,0,.845-1.025A0.95,0.95,0,0,0,21.729.41H1.271Z"/>
</svg>
