<svg xmlns="http://www.w3.org/2000/svg" width="10" height="9" viewBox="0 0 10 9">
  <defs>
    <style>
      .cls-1 {
        fill: #fff; 
      }
    </style>
  </defs>
  <path class="cls-1" d="M542.187,1207a2.523,2.523,0,0,0-1.884.82,0.016,0.016,0,0,0,0,.01h0l-0.3.39-0.3-.37h0a2.517,2.517,0,0,0-1.884-.85,2.743,2.743,0,0,0-1.989.85,2.951,2.951,0,0,0,0,4.09l3.733,3.87a0.614,0.614,0,0,0,.888,0l3.733-3.87a2.951,2.951,0,0,0,0-4.09,2.743,2.743,0,0,0-1.989-.85h0Z" transform="translate(-535 -1207)"/>
</svg>
