<svg xmlns="http://www.w3.org/2000/svg" width="7" height="12" viewBox="0 0 7 12">
  <defs>
    <style>
      .cls-1 {
        fill: #fff;
        fill-rule: evenodd;
      }
    </style>
  </defs>
  <path class="cls-1" d="M1527.31,772.493l4.58-4.491-4.64-4.55h0a0.816,0.816,0,0,1-.25-0.6,0.864,0.864,0,0,1,.87-0.857,0.889,0.889,0,0,1,.61.24h0l5.25,5.143h0a0.83,0.83,0,0,1,.27.617v0a0.83,0.83,0,0,1-.27.617h0l-5.25,5.143v0a0.891,0.891,0,0,1-.61.238,0.864,0.864,0,0,1-.87-0.857A0.841,0.841,0,0,1,1527.31,772.493Z" transform="translate(-1527 -762)"/>
</svg>
