<svg xmlns="http://www.w3.org/2000/svg" width="24" height="17" viewBox="0 0 24 17">
  <defs>
    <style>
      .cls-1 {
        fill: #fff;
        fill-rule: evenodd;
      }
    </style>
  </defs>
  <path class="cls-1" d="M1541.36,52.627l7.3-7.292a1.163,1.163,0,0,1,.34.824V60.841a1.2,1.2,0,0,1-.3.787ZM1525.37,45.3a1.122,1.122,0,0,1,.76-0.3h21.75a1.116,1.116,0,0,1,.75.3L1537,54.659Zm-0.07,16.327a1.2,1.2,0,0,1-.3-0.787V46.159a1.163,1.163,0,0,1,.34-0.824l7.3,7.292Zm11.7-4.651,3.05-3.045,8.6,7.749a1.131,1.131,0,0,1-.77.319h-21.75a1.137,1.137,0,0,1-.78-0.319l8.6-7.749Z" transform="translate(-1525 -45)"/>
</svg>
