<svg xmlns="http://www.w3.org/2000/svg" width="19" height="17" viewBox="0 0 19 17">
  <defs>
    <style>
      .cls-1 {
        fill: #e5e5e5;
        fill-rule: evenodd;
      }
    </style>
  </defs>
  <path class="cls-1" d="M260.109,1472.36h-12.1l-2.411,2.38a0.894,0.894,0,0,1-.63.26h-0.011a0.87,0.87,0,0,1-.619-0.26s-0.006-.01-0.01-0.01a1.494,1.494,0,0,1-.1-0.12,0.188,0.188,0,0,1-.029-0.05,0.52,0.52,0,0,1-.053-0.1,0.226,0.226,0,0,1-.016-0.05,0.645,0.645,0,0,1-.036-0.11,0.916,0.916,0,0,1-.018-0.18h0v-1.76H242.89a0.883,0.883,0,0,1-.89-0.88v-12.6a0.883,0.883,0,0,1,.891-0.88h17.218a0.883,0.883,0,0,1,.891.88v12.6A0.883,0.883,0,0,1,260.109,1472.36Z" transform="translate(-242 -1458)"/>
</svg>
